<?xml version="1.0" encoding="utf-8"?>
<!-- Generator: Adobe Illustrator 24.0.0, SVG Export Plug-In . SVG Version: 6.00 Build 0)  -->
<svg version="1.1" xmlns="http://www.w3.org/2000/svg" xmlns:xlink="http://www.w3.org/1999/xlink" x="0px" y="0px"
	 viewBox="0 0 64 64" enable-background="new 0 0 64 64" xml:space="preserve">
<g id="Captions">
</g>
<g id="Icons">
	<g>
		<g>
			<path fill="#FAB400" d="M42,52c0-5.514,4.486-10,10-10V28c0-2.209-1.791-4-4-4H16c-2.209,0-4,1.791-4,4v28c0,2.209,1.791,4,4,4
				h30.025C43.588,58.175,42,55.273,42,52z"/>
		</g>
		<g>
			<path fill="#505050" d="M40,4H24c-4.418,0-8,3.582-8,8v12h4V12c0-2.209,1.791-4,4-4h16c2.209,0,4,1.791,4,4v12h4V12
				C48,7.582,44.418,4,40,4z"/>
		</g>
		<g>
			<path fill="#3C3C3C" d="M26,4h-2c-4.418,0-8,3.582-8,8v12h2V12C18,7.582,21.582,4,26,4z"/>
		</g>
		<g>
			<path fill="#DC9600" d="M16,56V28c0-2.209,1.791-4,4-4h-4c-2.209,0-4,1.791-4,4v28c0,2.209,1.791,4,4,4h4
				C17.791,60,16,58.209,16,56z"/>
		</g>
		<g>
			<circle fill="#3CC8B4" cx="52" cy="52" r="8"/>
		</g>
		<g>
			<path fill="#1EAA96" d="M45.983,52c0-4.082,3.059-7.443,7.009-7.932C52.666,44.027,52.336,44,52,44c-4.418,0-8,3.582-8,8
				s3.582,8,8,8c0.336,0,0.666-0.027,0.991-0.068C49.042,59.443,45.983,56.082,45.983,52z"/>
		</g>
		<g>
			<polygon fill="#F0F0F0" points="57,50 51,56 47,52 49,50 51,52 55,48 			"/>
		</g>
		<g>
			<path fill="#BE7800" d="M38,38c0-3.737-3.416-6.675-7.295-5.864c-2.286,0.478-4.125,2.34-4.582,4.631
				C25.5,39.894,27.312,42.699,30,43.651V50c0,1.105,0.895,2,2,2h0c1.105,0,2-0.895,2-2v-6.349C36.329,42.827,38,40.611,38,38z"/>
		</g>
	</g>
</g>
</svg>
